<svg xmlns="http://www.w3.org/2000/svg" width="1200" height="540" viewBox="0 0 1200 540">
<defs><clipPath id="frame"><rect x="18" y="18" width="1164" height="504"/></clipPath><linearGradient id="sky" x2="0" y2="1"><stop stop-color="#FF4D70"/><stop offset="1" stop-color="#FFB547"/></linearGradient><pattern id="scan" width="6" height="6" patternUnits="userSpaceOnUse"><path d="M0 5.5H6" stroke="#11131C" stroke-opacity=".09"/></pattern></defs>
<rect width="1200" height="540" fill="#11131C"/><g clip-path="url(#frame)">
 <rect x="18" y="18" width="1164" height="504" fill="#F3F0E8"/>
 <!-- left identity panel -->
 <path d="M18 18H676V522H18z" fill="#00D8C4"/><path d="M18 18H676V522H18z" fill="url(#scan)"/>
 <path d="M18 367 183 266l110 61 162-183 221 155v223H18z" fill="#7C54FF"/><path d="m18 426 165-99 110 61 162-184 221 155v163H18z" fill="#FF4D70"/>
 <path d="M18 467 183 368l110 61 162-184 221 155v122H18z" fill="#FFB547"/>
 <circle cx="488" cy="123" r="57" fill="#F3F0E8"/><circle cx="488" cy="123" r="42" fill="#FF4D70"/><path d="M430 123h116M488 65v116" stroke="#11131C" stroke-width="2" opacity=".6"/>
 <!-- abstract runner silhouette -->
 <g fill="#11131C"><path d="m333 247 32-30 29 13 29 42-22 17-27-28-17 38-34-8 10-43z"/><path d="m361 292 35 7-8 55-34 24-39-4 8-23 30-9z"/><path d="m357 359-49 41-54 1 5-20 37-12 38-42z"/><path d="m385 351 28 10 27 45 45 15-8 18-62-10-29-39-23 8z"/><path d="m374 207 19-26 25 15-10 31-26 3z"/></g>
 <!-- angular signal streaks -->
 <path d="M58 347h132M76 362h93M478 297h128M507 312h94" stroke="#11131C" stroke-width="5"/>
 <!-- right terminal -->
 <rect x="676" y="18" width="506" height="504" fill="#F3F0E8"/>
 <rect x="706" y="48" width="446" height="36" fill="#11131C"/><text x="722" y="71" fill="#F3F0E8" font-family="monospace" font-size="11" letter-spacing="2">AST NETWORK // CREATOR PROFILE</text><circle cx="1126" cy="66" r="6" fill="#B9F34A"><animate attributeName="opacity" values="1;.25;1" dur="1.4s" repeatCount="indefinite"/></circle>
 <text x="706" y="169" fill="#11131C" font-family="Arial,sans-serif" font-size="68" font-weight="900" letter-spacing="-4">AstorAST</text>
 <path d="M706 190h446" stroke="#11131C" stroke-width="3"/>
 <text x="706" y="222" fill="#11131C" font-family="monospace" font-size="12" font-weight="bold" letter-spacing="1">INDEPENDENT CREATOR / SYSTEMS BUILDER</text>
 <text x="706" y="257" fill="#363743" font-family="Arial,sans-serif" font-size="15">I build worlds where software, simulation,</text><text x="706" y="279" fill="#363743" font-family="Arial,sans-serif" font-size="15">media and story share the same signal.</text>
 <g font-family="monospace" font-size="10" font-weight="bold"><rect x="706" y="308" width="132" height="31" fill="#FF4D70"/><text x="718" y="328" fill="#11131C">WORLD BUILDING</text><rect x="846" y="308" width="102" height="31" fill="#B9F34A"/><text x="858" y="328" fill="#11131C">SOFTWARE</text><rect x="956" y="308" width="112" height="31" fill="#7C54FF"/><text x="968" y="328" fill="#fff">SIMULATION</text><rect x="1076" y="308" width="76" height="31" fill="#FFB547"/><text x="1088" y="328" fill="#11131C">MEDIA</text></g>
 <rect x="706" y="367" width="446" height="2" fill="#11131C"/><text x="706" y="395" fill="#545563" font-family="monospace" font-size="10" letter-spacing="1">CURRENT DIRECTIVE</text><text x="706" y="424" fill="#11131C" font-family="Arial,sans-serif" font-size="23" font-weight="900">MAKE THE UNSEEN TANGIBLE.</text>
 <g transform="translate(706 454)"><rect width="446" height="37" fill="#11131C"/><text x="14" y="24" fill="#B9F34A" font-family="monospace" font-size="11">SIGNAL LOCK</text><text x="430" y="24" text-anchor="end" fill="#F3F0E8" font-family="monospace" font-size="11">AST // ACTIVE</text><rect x="0" y="34" width="80" height="3" fill="#B9F34A"><animate attributeName="x" values="0;366;0" dur="3.4s" repeatCount="indefinite"/></rect></g>
 <g font-family="monospace" font-size="9" fill="#11131C"><text x="36" y="45">AST / 01</text><text x="649" y="507" text-anchor="end">FIELD RECORD 04</text></g>
 <path d="M18 18h1164v504H18z" fill="none" stroke="#11131C" stroke-width="2"/>
</g></svg>
